RBDS03runT45_grf
version=1
nRows=37
nColumns=19
inDegrees=no
endheader
time	ground_force_r_vx	ground_force_r_vy	ground_force_r_vz	ground_force_r_px	ground_force_r_py	ground_force_r_pz	ground_force_r_mx	ground_force_r_my	ground_force_r_mz	ground_force_l_vx	ground_force_l_vy	ground_force_l_vz	ground_force_l_px	ground_force_l_py	ground_force_l_pz	ground_force_l_mx	ground_force_l_my	ground_force_l_mz
     14.99900000	      0.00000000	      0.00000000	      0.00000000	      0.00000000	      0.00000000	      0.00000000	      0.00000000	      0.00000000	      0.00000000	   -234.78315816	   1453.29821250	     -5.98800846	      2.51136319	      0.00000000	      1.07248617	     -0.00000000	      0.74990345	      0.00000000
     15.00000000	      0.00000000	      0.00000000	      0.00000000	      0.00000000	      0.00000000	      0.00000000	      0.00000000	      0.00000000	      0.00000000	   -237.62138573	   1473.36063257	     -6.38196676	      2.50926323	      0.00000000	      1.07266496	     -0.00000000	      0.89712337	      0.00000000
     15.00100000	      0.00000000	      0.00000000	      0.00000000	      0.00000000	      0.00000000	      0.00000000	      0.00000000	      0.00000000	      0.00000000	   -239.72196295	   1492.17509649	     -6.74221852	      2.50699411	      0.00000000	      1.07281172	     -0.00000000	      1.05704039	      0.00000000
     15.00200000	      0.00000000	      0.00000000	      0.00000000	      0.00000000	      0.00000000	      0.00000000	      0.00000000	      0.00000000	      0.00000000	   -241.82254016	   1510.98956040	     -7.10247027	      2.50472499	      0.00000000	      1.07295847	     -0.00000000	      1.21695741	      0.00000000
     15.00300000	      0.00000000	      0.00000000	      0.00000000	      0.00000000	      0.00000000	      0.00000000	      0.00000000	      0.00000000	      0.00000000	   -243.92311737	   1529.80402432	     -7.46272202	      2.50245587	      0.00000000	      1.07310523	     -0.00000000	      1.37687443	      0.00000000
     15.00400000	      0.00000000	      0.00000000	      0.00000000	      0.00000000	      0.00000000	      0.00000000	      0.00000000	      0.00000000	      0.00000000	   -245.46788336	   1547.80591357	     -7.79457668	      2.50007032	      0.00000000	      1.07323384	     -0.00000000	      1.54425641	      0.00000000
     15.00500000	      0.00000000	      0.00000000	      0.00000000	      0.00000000	      0.00000000	      0.00000000	      0.00000000	      0.00000000	      0.00000000	   -246.73474374	   1565.40151549	     -8.11223279	      2.49762655	      0.00000000	      1.07335338	     -0.00000000	      1.71537088	      0.00000000
     15.00600000	      0.00000000	      0.00000000	      0.00000000	      0.00000000	      0.00000000	      0.00000000	      0.00000000	      0.00000000	      0.00000000	   -248.00160412	   1582.99711741	     -8.42988890	      2.49518277	      0.00000000	      1.07347292	     -0.00000000	      1.88648534	      0.00000000
     15.00700000	      0.00000000	      0.00000000	      0.00000000	      0.00000000	      0.00000000	      0.00000000	      0.00000000	      0.00000000	      0.00000000	   -248.96323967	   1600.19114255	     -8.73178445	      2.49267953	      0.00000000	      1.07358494	     -0.00000000	      2.06057992	      0.00000000
     15.00800000	      0.00000000	      0.00000000	      0.00000000	      0.00000000	      0.00000000	      0.00000000	      0.00000000	      0.00000000	      0.00000000	   -249.31442557	   1616.58201414	     -9.00215889	      2.49005734	      0.00000000	      1.07368188	     -0.00000000	      2.24063472	      0.00000000
     15.00900000	      0.00000000	      0.00000000	      0.00000000	      0.00000000	      0.00000000	      0.00000000	      0.00000000	      0.00000000	      0.00000000	   -249.66561147	   1632.97288572	     -9.27253333	      2.48743516	      0.00000000	      1.07377883	     -0.00000000	      2.42068952	      0.00000000
     15.01000000	      0.00000000	      0.00000000	      0.00000000	      0.00000000	      0.00000000	      0.00000000	      0.00000000	      0.00000000	      0.00000000	   -250.01679736	   1649.36375730	     -9.54290776	      2.48481297	      0.00000000	      1.07387578	     -0.00000000	      2.60074431	      0.00000000
     15.01100000	      0.00000000	      0.00000000	      0.00000000	      0.00000000	      0.00000000	      0.00000000	      0.00000000	      0.00000000	      0.00000000	   -249.38783590	   1664.54538513	     -9.76552696	      2.48201040	      0.00000000	      1.07395441	     -0.00000000	      2.78685744	      0.00000000
     15.01200000	      0.00000000	      0.00000000	      0.00000000	      0.00000000	      0.00000000	      0.00000000	      0.00000000	      0.00000000	      0.00000000	   -248.75887443	   1679.72701295	     -9.98814616	      2.47920782	      0.00000000	      1.07403304	     -0.00000000	      2.97297057	      0.00000000
     15.01300000	      0.00000000	      0.00000000	      0.00000000	      0.00000000	      0.00000000	      0.00000000	      0.00000000	      0.00000000	      0.00000000	   -248.12991296	   1694.90864078	    -10.21076536	      2.47640525	      0.00000000	      1.07411166	     -0.00000000	      3.15908369	      0.00000000
     15.01400000	      0.00000000	      0.00000000	      0.00000000	      0.00000000	      0.00000000	      0.00000000	      0.00000000	      0.00000000	      0.00000000	   -246.81794259	   1709.26733003	    -10.40384853	      2.47348228	      0.00000000	      1.07418063	     -0.00000000	      3.34702078	      0.00000000
     15.01500000	      0.00000000	      0.00000000	      0.00000000	      0.00000000	      0.00000000	      0.00000000	      0.00000000	      0.00000000	      0.00000000	   -245.16446777	   1723.21454999	    -10.58216369	      2.47049912	      0.00000000	      1.07424476	     -0.00000000	      3.53586985	      0.00000000
     15.01600000	      0.00000000	      0.00000000	      0.00000000	      0.00000000	      0.00000000	      0.00000000	      0.00000000	      0.00000000	      0.00000000	   -243.51099294	   1737.16176995	    -10.76047884	      2.46751596	      0.00000000	      1.07430889	     -0.00000000	      3.72471891	      0.00000000
     15.01700000	      0.00000000	      0.00000000	      0.00000000	      0.00000000	      0.00000000	      0.00000000	      0.00000000	      0.00000000	      0.00000000	   -241.50853010	   1750.68213841	    -10.92631256	      2.46447313	      0.00000000	      1.07436930	     -0.00000000	      3.91329787	      0.00000000
     15.01800000	      0.00000000	      0.00000000	      0.00000000	      0.00000000	      0.00000000	      0.00000000	      0.00000000	      0.00000000	      0.00000000	   -238.80809122	   1763.34880386	    -11.06718340	      2.46131096	      0.00000000	      1.07442227	     -0.00000000	      4.10133662	      0.00000000
     15.01900000	      0.00000000	      0.00000000	      0.00000000	      0.00000000	      0.00000000	      0.00000000	      0.00000000	      0.00000000	      0.00000000	   -236.10765235	   1776.01546932	    -11.20805424	      2.45814879	      0.00000000	      1.07447524	     -0.00000000	      4.28937538	      0.00000000
     15.02000000	      0.00000000	      0.00000000	      0.00000000	      0.00000000	      0.00000000	      0.00000000	      0.00000000	      0.00000000	      0.00000000	   -233.40721347	   1788.68213478	    -11.34892507	      2.45498662	      0.00000000	      1.07452821	     -0.00000000	      4.47741413	      0.00000000
     15.02100000	      0.00000000	      0.00000000	      0.00000000	      0.00000000	      0.00000000	      0.00000000	      0.00000000	      0.00000000	      0.00000000	   -229.66027227	   1800.00232257	    -11.46194734	      2.45164871	      0.00000000	      1.07457283	     -0.00000000	      4.66109936	      0.00000000
     15.02200000	      0.00000000	      0.00000000	      0.00000000	      0.00000000	      0.00000000	      0.00000000	      0.00000000	      0.00000000	      0.00000000	   -225.91333107	   1811.32251036	    -11.57496960	      2.44831080	      0.00000000	      1.07461744	     -0.00000000	      4.84478460	      0.00000000
     15.02300000	      0.00000000	      0.00000000	      0.00000000	      0.00000000	      0.00000000	      0.00000000	      0.00000000	      0.00000000	      0.00000000	   -222.16638987	   1822.64269815	    -11.68799186	      2.44497290	      0.00000000	      1.07466206	     -0.00000000	      5.02846983	      0.00000000
     15.02400000	      0.00000000	      0.00000000	      0.00000000	      0.00000000	      0.00000000	      0.00000000	      0.00000000	      0.00000000	      0.00000000	   -217.73752024	   1833.00977386	    -11.79016379	      2.44152111	      0.00000000	      1.07470263	     -0.00000000	      5.20703483	      0.00000000
     15.02500000	      0.00000000	      0.00000000	      0.00000000	      0.00000000	      0.00000000	      0.00000000	      0.00000000	      0.00000000	      0.00000000	   -212.96768639	   1842.90029353	    -11.88691056	      2.43801239	      0.00000000	      1.07474119	     -0.00000000	      5.38303971	      0.00000000
     15.02600000	      0.00000000	      0.00000000	      0.00000000	      0.00000000	      0.00000000	      0.00000000	      0.00000000	      0.00000000	      0.00000000	   -208.19785254	   1852.79081320	    -11.98365732	      2.43450367	      0.00000000	      1.07477975	     -0.00000000	      5.55904459	      0.00000000
     15.02700000	      0.00000000	      0.00000000	      0.00000000	      0.00000000	      0.00000000	      0.00000000	      0.00000000	      0.00000000	      0.00000000	   -203.10249173	   1862.17246372	    -12.07923412	      2.43094017	      0.00000000	      1.07481690	     -0.00000000	      5.73151192	      0.00000000
     15.02800000	      0.00000000	      0.00000000	      0.00000000	      0.00000000	      0.00000000	      0.00000000	      0.00000000	      0.00000000	      0.00000000	   -197.35607697	   1870.53637596	    -12.17247098	      2.42726710	      0.00000000	      1.07485122	     -0.00000000	      5.89690415	      0.00000000
     15.02900000	      0.00000000	      0.00000000	      0.00000000	      0.00000000	      0.00000000	      0.00000000	      0.00000000	      0.00000000	      0.00000000	   -191.60966222	   1878.90028819	    -12.26570783	      2.42359404	      0.00000000	      1.07488554	     -0.00000000	      6.06229638	      0.00000000
     15.03000000	      0.00000000	      0.00000000	      0.00000000	      0.00000000	      0.00000000	      0.00000000	      0.00000000	      0.00000000	      0.00000000	   -185.86324746	   1887.26420042	    -12.35894469	      2.41992097	      0.00000000	      1.07491986	     -0.00000000	      6.22768861	      0.00000000
     15.03100000	      0.00000000	      0.00000000	      0.00000000	      0.00000000	      0.00000000	      0.00000000	      0.00000000	      0.00000000	      0.00000000	   -179.20823347	   1893.99503056	    -12.46186151	      2.41609151	      0.00000000	      1.07495134	     -0.00000000	      6.38006045	      0.00000000
     15.03200000	      0.00000000	      0.00000000	      0.00000000	      0.00000000	      0.00000000	      0.00000000	      0.00000000	      0.00000000	      0.00000000	   -172.55321947	   1900.72586069	    -12.56477833	      2.41226204	      0.00000000	      1.07498282	     -0.00000000	      6.53243228	      0.00000000
     15.03300000	      0.00000000	      0.00000000	      0.00000000	      0.00000000	      0.00000000	      0.00000000	      0.00000000	      0.00000000	      0.00000000	   -165.89820548	   1907.45669083	    -12.66769515	      2.40843257	      0.00000000	      1.07501429	     -0.00000000	      6.68480412	      0.00000000
     15.03400000	      0.00000000	      0.00000000	      0.00000000	      0.00000000	      0.00000000	      0.00000000	      0.00000000	      0.00000000	      0.00000000	   -158.69621147	   1913.02453126	    -12.78565417	      2.40450506	      0.00000000	      1.07504457	     -0.00000000	      6.82729233	      0.00000000
     15.03500000	      0.00000000	      0.00000000	      0.00000000	      0.00000000	      0.00000000	      0.00000000	      0.00000000	      0.00000000	      0.00000000	   -151.22072745	   1918.01087683	    -12.91113429	      2.40052853	      0.00000000	      1.07507425	     -0.00000000	      6.96483873	      0.00000000
